<?xml version="1.0" standalone="no"?><!-- Generator: Gravit.io --><svg xmlns="http://www.w3.org/2000/svg" xmlns:xlink="http://www.w3.org/1999/xlink" style="isolation:isolate" viewBox="0 0 317.382 430.766" width="317.382" height="430.766"><defs><clipPath id="_clipPath_JKfEb8XBSEl3BnHEjWH7pzs7jCAPh4DI"><rect width="317.382" height="430.766"/></clipPath></defs><g clip-path="url(#_clipPath_JKfEb8XBSEl3BnHEjWH7pzs7jCAPh4DI)"><path d=" M 123.245 35.446 C 123.245 15.883 139.128 0 158.691 0 C 178.254 0 194.137 15.883 194.137 35.446 C 194.137 55.009 178.254 70.892 158.691 70.892 C 139.128 70.892 123.245 55.009 123.245 35.446 Z " fill="rgb(3,0,0)"/><path d=" M 256.549 269.505 L 60.833 269.505 L 60.833 134.731 C 60.833 84.356 101.736 43.446 152.119 43.446 L 158.691 43.446 C 212.699 43.446 256.549 87.295 256.549 141.304 L 256.549 269.505 Z " fill-rule="evenodd" fill="rgb(3,0,0)"/><path d=" M 158.691 81.096 L 317.382 359.615 L 0 359.615 L 158.691 81.096 Z " fill-rule="evenodd" fill="rgb(3,0,0)"/><path d=" M 103.823 376.345 C 104.064 406.423 128.557 430.766 158.691 430.766 C 188.825 430.766 213.318 406.423 213.559 376.345 L 103.823 376.345 Z " fill="rgb(3,0,0)"/></g></svg>